<?xml version="1.0" encoding="UTF-8"?>
<svg xmlns="http://www.w3.org/2000/svg" viewBox="0 0 1713.11 1187.95">
  <defs>
    <style>
      .cls-1 {
        stroke-width: 13px;
      }

      .cls-1, .cls-2 {
        fill: #b0b0b0;
      }

      .cls-1, .cls-2, .cls-3, .cls-4, .cls-5, .cls-6, .cls-7 {
        stroke-miterlimit: 10;
      }

      .cls-1, .cls-2, .cls-3, .cls-5, .cls-7 {
        stroke: #231f20;
      }

      .cls-8, .cls-4 {
        fill: #231f20;
      }

      .cls-2 {
        stroke-width: 10px;
      }

      .cls-9 {
        fill: #995d25;
      }

      .cls-10 {
        fill: #cf9b2a;
      }

      .cls-3 {
        stroke-width: 40px;
      }

      .cls-3, .cls-5, .cls-7 {
        fill: none;
      }

      .cls-4 {
        stroke: #f1f2f2;
        stroke-width: 15px;
      }

      .cls-11 {
        fill: #384ea1;
      }

      .cls-5 {
        stroke-width: 22px;
      }

      .cls-6 {
        fill: #fff;
        stroke: #000;
        stroke-width: 8px;
      }

      .cls-12 {
        fill: #afe1f1;
      }

      .cls-7 {
        stroke-width: 25px;
      }
    </style>
  </defs>
  <g id="Layer_3" data-name="Layer 3">
    <path class="cls-6" d="M920.25,20.31c322.18,46.82,546.59,343.86,501.24,663.46-45.35,319.6-343.3,540.74-665.48,493.92-322.18-46.82-546.59-343.86-501.24-663.46C300.13,194.63,598.07-26.51,920.25,20.31Z"/>
    <circle class="cls-9" cx="839.59" cy="589.94" r="419.79"/>
    <path class="cls-10" d="M562.87,340.72c-35.84,94-21.97,180.96-17.08,209.42,35.58,207.1,230.8,319.41,274.09,342.55,0,0,119.46,63.86,210.91,47.27,30.37-5.51,57.71-17.35,57.71-17.35,5.96-2.51,11.93-5.38,18.29-8.8,138.45-74.4,152.81-284.3,153.47-294.16,9.2-137.89-52.27-294.55-185.51-377.45-111.55-69.41-228.17-58.98-270.71-52.54-51.55,7.81-157.38,17.09-214.06,96.43-13.49,18.89-19.81,35.46-27.12,54.63Z"/>
    <circle class="cls-7" cx="841.78" cy="587.61" r="419.79"/>
  </g>
  <g id="Layer_1" data-name="Layer 1">
    <g>
      <line class="cls-5" x1="576.85" y1="918.35" x2="475.1" y2="380.78"/>
      <line class="cls-5" x1="784.23" y1="1005.34" x2="635.78" y2="221.08"/>
      <line class="cls-5" x1="945.73" y1="998.64" x2="789.07" y2="170.95"/>
      <line class="cls-5" x1="1117.25" y1="906.13" x2="982.49" y2="194.15"/>
      <line class="cls-5" x1="1248.52" y1="692.68" x2="1183.81" y2="350.81"/>
      <line class="cls-5" x1="536.94" y1="300.81" x2="1017.53" y2="209.85"/>
      <line class="cls-5" x1="440.7" y1="455.29" x2="1161.73" y2="318.81"/>
      <polyline class="cls-5" points="420.22 662.98 1246.34 506.61 1255.1 563.46"/>
      <line class="cls-5" x1="465.72" y1="790.81" x2="1257.6" y2="640.92"/>
      <line class="cls-5" x1="575.86" y1="913.14" x2="1208.71" y2="793.36"/>
    </g>
    <path class="cls-2" d="M1706.99,482.46c-1.98-4.68-5.35-8.28-5.35-8.28-2.66-2.55-6.14-4.87-10.31-6.99-3.69-49.15-7.38-98.31-11.07-147.46l-12.97.09c-2.78,45.74-5.56,91.48-8.34,137.22-.84.68-4.91,3.8-10.7,3.26-6.77-.64-10.39-5.78-10.89-6.5-3.33-44.32-6.66-88.65-9.98-132.97l-12.98.09c-2.65,43.62-5.3,87.24-7.96,130.86-2.01,4.52-6.55,7.37-11.39,7.18-4.48-.18-8.52-2.93-10.41-7.09-2.68-44.02-5.35-88.03-8.03-132.05l-12.97-.09c-3.37,44.83-6.73,89.66-10.1,134.49-.26.51-3.45,6.42-10.36,7.26-6.23.76-10.47-3.22-11.02-3.75-2.81-46.27-5.63-92.55-8.44-138.82l-12.98-.09c-3.73,49.68-7.46,99.36-11.19,149.04-7.76,5.19-10.78,10.6-12.08,14.61-7.17,21.99,21.08,51.75,47.5,64.61,15.05,7.33,29.28,9.07,38.89,9.35-.33,1.03-.64,2.19-.87,3.48-.31,1.68-.48,3.42-.48,5.2v365.31c0,15.73,12.75,28.48,28.48,28.48h0c15.73,0,28.48-12.75,28.48-28.48v-365.31c0-3.61-.68-7.06-1.91-10.24,9.8-.39,42.57-2.92,63.84-27.76,12.39-14.47,19.66-35.08,15.61-44.64Z"/>
    <path class="cls-1" d="M8.78,555.87c2.91-63.49,4.64-106.63,5.16-118.71,6.07-141.88,9.1-212.81,23.74-216.08,29.03-6.48,96.63,143.59,88.16,268.73-4.2,62.12-25.8,98.14-38.1,97.81-4.3-.12-14.85-4.37-21.88.63-2.23,1.58-2.89,3.66-2.89,3.66.16,123.5.32,247,.48,370.51,0,15.73-12.75,28.48-28.48,28.48h0c-15.73,0-28.48-12.75-28.48-28.48v-357.81c.54-11.33,1.34-28.23,2.28-48.72Z"/>
  </g>
  <g id="Layer_2" data-name="Layer 2">
    <path class="cls-11" d="M598.72,455.98v302.99c0,50.99,50.45,86.65,98.52,69.62,152.84-54.12,305.69-108.25,458.53-162.37,67.11-23.76,65.06-119.37-3-140.24-152.84-46.87-305.69-93.74-458.53-140.62-47.48-14.56-95.52,20.95-95.52,70.62Z"/>
    <path class="cls-12" d="M619.39,387.05c-16.4,16.31-14.65,40.08-16.24,62.78-6.76,96.02-2.8,170.49.85,206.31,12.29,120.73-5.22,135.47,15.58,154.89,31.99,29.87,92.39,12.73,243.81-41.26,2.2-.78,6.13-2.19,11.51-4.1,194.78-69.55,267.35-57.6,311.17-119.24,12.03-16.91,28.37-48.44,18.9-58.81-24.43-26.74-226.26,81.2-392.81,149.81-18.73,7.72-61.4,24.63-94,5.61-5.98-3.49-18.04-11.94-27.93-32.32-47.34-97.51,31.06-311.32-16.26-339.1-15.29-8.98-41.71,2.64-54.58,15.44Z"/>
    <g>
      <path class="cls-4" d="M838.47,514.34l-21.22,178.32c-.35,2.97-2.87,5.21-5.87,5.21h-53.33c-2.83,0-5.27-1.96-5.81-4.74-3.11-16.07-6.02-33.33-8.73-51.77-.99-6.74-10.72-6.74-11.68,0-2.05,14.31-4.54,31.45-7.47,51.41-.43,2.9-2.92,5.1-5.85,5.1h-52.75c-2.99,0-5.51-2.24-5.87-5.21l-21.34-178.32c-.42-3.52,2.32-6.61,5.87-6.61h37.27c3.08,0,5.64,2.36,5.89,5.43l4.93,60.91,5.19,64.14c1.82-32.12,6.26-73.9,13.34-125.32.4-2.92,2.91-5.16,5.87-5.16h42.32c3.04,0,5.58,2.27,5.88,5.3.93,9.4,2.59,28.54,4.97,57.41h0c.55,7.14,10.97,7.31,11.74.19,2.09-19.47,4.53-38.75,7.31-57.84.42-2.91,2.93-5.06,5.88-5.06h37.59c3.54,0,6.28,3.09,5.87,6.61Z"/>
      <path class="cls-4" d="M1101.22,514.34l-21.22,178.32c-.35,2.97-2.87,5.21-5.87,5.21h-53.33c-2.83,0-5.27-1.96-5.81-4.74-3.11-16.07-6.02-33.32-8.73-51.76-.99-6.74-10.72-6.74-11.68,0-2.05,14.31-4.53,31.44-7.46,51.4-.43,2.9-2.92,5.1-5.85,5.1h-52.75c-2.99,0-5.51-2.24-5.87-5.21l-21.34-178.32c-.42-3.52,2.32-6.61,5.87-6.61h37.27c3.08,0,5.64,2.36,5.89,5.43l4.93,60.91,5.19,64.14c1.82-32.12,6.26-73.9,13.34-125.32.4-2.92,2.91-5.16,5.87-5.16h42.31c3.04,0,5.58,2.27,5.88,5.3.93,9.4,2.59,28.54,4.97,57.41h0c.55,7.16,10.97,7.33,11.74.2,2.09-19.47,4.53-38.76,7.32-57.85.42-2.91,2.93-5.06,5.88-5.06h37.59c3.54,0,6.28,3.09,5.87,6.61Z"/>
    </g>
    <path class="cls-3" d="M586.21,441.51l1.96,314.03c.33,52.85,52.47,90.13,101.82,72.8,156.92-55.11,313.85-110.22,470.77-165.33,68.9-24.2,66.18-123.3-3.99-145.37-157.58-49.57-315.15-99.14-472.73-148.7-48.95-15.4-98.15,21.1-97.83,72.57Z"/>
    <path class="cls-8" d="M715.21,621.69c-2.48,12.18-9.75,39.31-17.65,38.97-7.74-.34-12.41-26.94-14.68-39.86-5.01-28.55-3.74-55.04-1.41-55.2,3.61-.24,7.06,62.33,15.46,62.42,5.99.06,12.92-31.68,15.46-48.23,1.54-10.03,1.54-14.93,2.3-14.94,1.8-.01,6.5,27.37.51,56.85Z"/>
    <path class="cls-8" d="M977.74,616.42c-2.48,12.18-9.75,39.31-17.65,38.97-7.74-.34-12.41-26.94-14.68-39.86-5.01-28.55-3.74-55.04-1.41-55.2,3.61-.24,7.06,62.33,15.46,62.42,5.99.06,12.92-31.68,15.46-48.23,1.54-10.03,1.54-14.93,2.3-14.94,1.8-.01,6.5,27.37.51,56.85Z"/>
  </g>
</svg>